<svg xmlns="http://www.w3.org/2000/svg" height="83px" width="237px">
    <g>
        <path fill="#4BAE45" d="M23.104,22.802h-4.68l-1.525-4.469H7.617l-1.493,4.469h-4.71L9.632,1.097h3.394
            c1.152,0,1.893,0.359,2.193,1.193c0.301,0.834,4.045,10.486,4.045,10.486h-4.378l-2.657-7.332l-3.365,9.236h9.398
            c1.262,0,1.954,0.412,2.287,1.451L23.104,22.802z"/>
        <path fill="#4BAE45" d="M64.146,22.802h-4.68l-1.524-4.469H48.66l-1.492,4.469h-4.711l8.219-21.705h3.394
            c1.151,0,1.892,0.359,2.192,1.193c0.301,0.834,4.045,10.486,4.045,10.486H55.93l-2.658-7.332l-3.364,9.236h9.399
            c1.26,0,1.951,0.412,2.285,1.451L64.146,22.802z"/>
        <path fill="#4BAE45" d="M24.587,1.097H33.1c6.643,0,9.902,3.531,9.902,10.867c0,4.045-1.268,7.094-3.532,8.906
            c-2.112,1.69-4.468,1.93-7.577,1.93h-7.306V1.097z M32.557,18.876c4.137,0,5.887-2.022,5.887-6.912
            c0-4.83-1.659-7.065-5.344-7.065h-4.136v13.977H32.557z"/>
        <path fill="#231F20" d="M92.917,22.73l-1.938-5.525h-8.734l-1.938,5.525h-2.858l7.687-21.185h3.017l7.751,21.185H92.917z
             M86.596,4.562l-3.558,10.322h7.147L86.596,4.562z"/>
        <path fill="#231F20" d="M116.864,22.73v-8.988c0-0.953,0.032-2.858-0.763-3.717c-0.477-0.539-1.175-0.794-2.096-0.794
            c-1.875,0-3.717,1.08-4.066,1.304c0.254,0.666,0.254,2.35,0.254,3.588v8.607h-2.668v-8.512c0-2.064,0.031-3.462-0.762-4.288
            c-0.414-0.413-1.08-0.699-2.002-0.699c-1.873,0-3.716,1.144-3.938,1.271V22.73h-2.701V7.357h2.415v1.144
            c0.19-0.127,2.287-1.558,4.701-1.558c1.936,0,3.081,0.826,3.78,1.779c1.27-0.794,3.017-1.779,5.336-1.779
            c2.128,0,3.208,0.858,3.685,1.335c1.461,1.461,1.524,3.049,1.524,5.525v8.926H116.864z"/>
        <path fill="#231F20" d="M135.791,15.774h-10.704c-0.031,2.637,1.493,5.018,4.827,5.018c2.415,0,4.067-1.047,4.353-1.207
            l1.016,1.842c-0.254,0.191-2.351,1.652-5.59,1.652c-4.669,0-7.305-3.367-7.305-7.941c0-4.89,2.857-8.193,7.146-8.193
            c3.876,0,6.321,2.858,6.321,7.685C135.855,14.948,135.791,15.489,135.791,15.774 M129.565,9.105c-2.414,0-4.225,1.778-4.447,4.541
            h8.132C133.25,11.866,132.425,9.105,129.565,9.105"/>
        <path fill="#231F20" d="M147.352,9.39c-0.191-0.031-0.667-0.095-1.144-0.095c-3.018,0-4.289,2.191-4.543,2.509v10.928h-2.7V7.357
            h2.415v2.002c0.158-0.19,1.843-2.414,4.955-2.414c1.143,0,1.557,0.254,1.651,0.285L147.352,9.39z"/>
        <path fill="#231F20" d="M151.383,4.118c-0.92,0-1.65-0.731-1.65-1.652c0-0.922,0.73-1.652,1.65-1.652
            c0.921,0,1.652,0.731,1.652,1.652C153.035,3.387,152.304,4.118,151.383,4.118 M150.049,7.357h2.7V22.73h-2.7V7.357z"/>
        <path fill="#231F20" d="M163.452,23.079c-4.416,0-7.465-3.08-7.465-7.781c0-4.891,3.272-8.354,7.814-8.354
            c2.89,0,4.732,1.461,4.891,1.651l-1.143,1.747c-0.285-0.191-1.621-1.112-3.685-1.112c-3.145,0-5.146,2.667-5.146,5.814
            c0,3.398,1.97,5.685,4.985,5.685c2.319,0,3.972-1.144,4.1-1.209l1.11,1.844C168.82,21.491,166.629,23.079,163.452,23.079"/>
        <path fill="#231F20" d="M179.903,22.73v-1.143c-0.191,0.096-2.065,1.461-4.701,1.461c-2.985,0-4.955-1.938-4.955-4.766
            c0-5.082,6.384-5.209,8.767-5.209h0.698v-0.984c0-0.857-0.03-1.556-0.634-2.158c-0.604-0.604-1.589-0.795-2.701-0.795
            c-2.255,0-4.002,1.08-4.224,1.207l-0.985-1.811c0.159-0.159,2.16-1.588,5.463-1.588c1.684,0,3.368,0.477,4.447,1.556
            c1.145,1.144,1.239,2.446,1.239,4.573v9.656H179.903z M179.712,15.107h-0.794c-2.444,0-4.415,0.35-5.398,1.334
            c-0.477,0.477-0.699,1.016-0.699,1.779c0,1.557,1.111,2.637,3.049,2.637c1.906,0,3.494-0.984,3.843-1.143V15.107z"/>
        <path fill="#231F20" d="M196.068,22.73v-8.734c0-1.938-0.032-3.207-0.826-4.002c-0.413-0.412-1.207-0.763-2.16-0.763
            c-1.969,0-3.906,1.239-4.033,1.334V22.73h-2.7V7.357h2.415v1.144c0.254-0.159,2.19-1.558,4.796-1.558
            c2.129,0,3.208,0.858,3.684,1.335c1.461,1.461,1.523,3.049,1.523,5.525v8.926H196.068z"/>
        <path fill="#231F20" d="M93.998,49.755c-2.669,2.668-5.814,2.857-9.753,2.857h-4.636V31.427h4.668
            c4.099,0,7.179,0.158,9.721,2.699c1.873,1.875,3.018,4.67,3.018,7.75C97.016,45.085,95.936,47.816,93.998,49.755 M91.869,35.714
            c-1.842-1.842-3.939-2-7.592-2h-1.842v16.58h2.637c2.826,0,5.113-0.318,6.924-2.16c1.429-1.461,2.128-3.748,2.128-6.32
            C94.124,39.653,93.648,37.493,91.869,35.714"/>
        <path fill="#231F20" d="M112.448,45.657h-10.704c-0.031,2.635,1.493,5.018,4.828,5.018c2.414,0,4.066-1.049,4.351-1.207
            l1.017,1.842c-0.254,0.191-2.351,1.652-5.591,1.652c-4.668,0-7.305-3.367-7.305-7.941c0-4.891,2.858-8.195,7.146-8.195
            c3.876,0,6.321,2.859,6.321,7.688C112.513,44.829,112.448,45.37,112.448,45.657 M106.223,38.985c-2.414,0-4.225,1.779-4.446,4.543
            h8.132C109.908,41.749,109.082,38.985,106.223,38.985"/>
        <path fill="#231F20" d="M125.151,52.612v-8.734c0-1.938-0.031-3.209-0.826-4.002c-0.412-0.414-1.206-0.764-2.159-0.764
            c-1.97,0-3.907,1.24-4.033,1.334v12.166h-2.701V37.239h2.415v1.143c0.254-0.158,2.191-1.555,4.796-1.555
            c2.128,0,3.208,0.857,3.684,1.332c1.463,1.463,1.525,3.051,1.525,5.527v8.926H125.151z"/>
        <path fill="#231F20" d="M137.251,52.993c-1.398,0-2.636-0.35-3.462-1.174c-1.111-1.113-1.017-2.668-1.017-4.512v-7.846h-2.699
            v-2.223h2.699v-4.32h2.7v4.32h4.732v2.223h-4.732v8.291c0,1.557,0.063,2.922,2.255,2.922c1.238,0,2.001-0.381,2.128-0.412
            l0.7,1.904C140.363,52.263,139.157,52.993,137.251,52.993"/>
        <path fill="#231F20" d="M151.606,52.612V51.47c-0.19,0.094-2.064,1.461-4.702,1.461c-2.984,0-4.953-1.938-4.953-4.764
            c0-5.084,6.384-5.211,8.766-5.211h0.699v-0.984c0-0.857-0.032-1.557-0.635-2.16c-0.604-0.603-1.589-0.793-2.7-0.793
            c-2.255,0-4.003,1.08-4.226,1.205l-0.984-1.809c0.16-0.16,2.16-1.588,5.464-1.588c1.684,0,3.367,0.475,4.447,1.555
            c1.143,1.144,1.237,2.447,1.237,4.574v9.656H151.606z M151.416,44.989h-0.794c-2.445,0-4.415,0.35-5.4,1.334
            c-0.476,0.477-0.698,1.016-0.698,1.779c0,1.557,1.11,2.637,3.049,2.637c1.905,0,3.494-0.984,3.844-1.145V44.989z"/>
        <rect x="158.02" y="29.712" fill="#231F20" width="2.699" height="22.9"/>
        <path fill="#231F20" d="M92.917,81.774l-1.938-5.529h-8.734l-1.938,5.529h-2.858l7.687-21.187h3.017l7.751,21.187H92.917z
             M86.596,63.605l-3.558,10.324h7.147L86.596,63.605z"/>
        <path fill="#231F20" d="M102.698,82.187c-3.05,0-5.082-1.365-5.273-1.525l1.017-1.873c0.317,0.191,1.873,1.174,4.098,1.174
            c1.652,0,2.954-0.92,2.954-2.287c0-3.143-7.591-2.445-7.591-7.336c0-2.605,2.223-4.352,5.367-4.352
            c2.985,0,4.701,1.238,4.86,1.365l-1.019,1.811c-0.189-0.127-1.777-1.049-3.652-1.049c-1.873,0-2.826,0.922-2.826,2.064
            c0,2.953,7.688,2.414,7.688,7.307C108.32,80.47,105.715,82.187,102.698,82.187"/>
        <path fill="#231F20" d="M115.496,82.187c-3.049,0-5.082-1.365-5.273-1.525l1.017-1.873c0.317,0.191,1.873,1.174,4.097,1.174
            c1.652,0,2.954-0.92,2.954-2.287c0-3.143-7.591-2.445-7.591-7.336c0-2.605,2.223-4.352,5.368-4.352
            c2.986,0,4.701,1.238,4.86,1.365l-1.018,1.811c-0.189-0.127-1.778-1.049-3.653-1.049c-1.874,0-2.826,0.922-2.826,2.064
            c0,2.953,7.687,2.414,7.687,7.307C121.118,80.47,118.514,82.187,115.496,82.187"/>
        <path fill="#231F20" d="M130.328,82.122c-4.288,0-7.147-3.176-7.147-8.035c0-4.828,2.892-8.1,7.37-8.1
            c4.287,0,7.115,3.176,7.115,8.1C137.666,78.915,134.775,82.122,130.328,82.122 M130.392,68.21c-2.764,0-4.511,2.32-4.511,5.781
            c0,3.525,1.97,5.877,4.606,5.877c2.858,0,4.479-2.256,4.479-5.748C134.966,70.593,133.028,68.21,130.392,68.21"/>
        <path fill="#231F20" d="M147.479,82.122c-4.415,0-7.465-3.08-7.465-7.781c0-4.891,3.27-8.354,7.813-8.354
            c2.891,0,4.733,1.461,4.892,1.65l-1.144,1.748c-0.286-0.189-1.62-1.113-3.685-1.113c-3.145,0-5.146,2.67-5.146,5.814
            c0,3.399,1.971,5.686,4.987,5.686c2.32,0,3.97-1.144,4.098-1.207l1.112,1.842C152.846,80.534,150.654,82.122,147.479,82.122"/>
        <path fill="#231F20" d="M156.877,63.161c-0.921,0-1.652-0.732-1.652-1.652c0-0.922,0.732-1.652,1.652-1.652
            c0.922,0,1.652,0.73,1.652,1.652C158.529,62.429,157.799,63.161,156.877,63.161 M155.544,66.399h2.7v15.373h-2.7V66.399z"/>
        <path fill="#231F20" d="M170.979,81.774V80.63c-0.189,0.096-2.064,1.461-4.701,1.461c-2.985,0-4.955-1.938-4.955-4.764
            c0-5.082,6.385-5.211,8.768-5.211h0.699v-0.982c0-0.859-0.032-1.559-0.637-2.16c-0.602-0.604-1.588-0.795-2.698-0.795
            c-2.257,0-4.003,1.08-4.227,1.207l-0.983-1.811c0.158-0.158,2.159-1.588,5.463-1.588c1.684,0,3.367,0.477,4.446,1.557
            c1.145,1.142,1.239,2.445,1.239,4.572v9.658H170.979z M170.789,74.149h-0.795c-2.446,0-4.414,0.35-5.399,1.334
            c-0.477,0.477-0.699,1.018-0.699,1.779c0,1.557,1.111,2.637,3.049,2.637c1.906,0,3.494-0.984,3.845-1.144V74.149z"/>
        <path fill="#231F20" d="M182.982,82.153c-1.396,0-2.636-0.348-3.462-1.174c-1.11-1.113-1.017-2.668-1.017-4.512v-7.844h-2.699
            v-2.225h2.699v-4.318h2.7v4.318h4.732v2.225h-4.732v8.291c0,1.555,0.063,2.92,2.255,2.92c1.24,0,2.003-0.381,2.13-0.412
            l0.698,1.906C186.096,81.425,184.889,82.153,182.982,82.153"/>
        <path fill="#231F20" d="M189.874,63.161c-0.921,0-1.652-0.732-1.652-1.652c0-0.922,0.731-1.652,1.652-1.652
            c0.921,0,1.652,0.73,1.652,1.652C191.526,62.429,190.795,63.161,189.874,63.161 M188.54,66.399h2.7v15.373h-2.7V66.399z"/>
        <path fill="#231F20" d="M201.657,82.122c-4.288,0-7.147-3.176-7.147-8.035c0-4.828,2.891-8.1,7.37-8.1
            c4.287,0,7.114,3.176,7.114,8.1C208.994,78.915,206.104,82.122,201.657,82.122 M201.72,68.21c-2.763,0-4.51,2.32-4.51,5.781
            c0,3.525,1.97,5.877,4.605,5.877c2.858,0,4.48-2.256,4.48-5.748C206.295,70.593,204.356,68.21,201.72,68.21"/>
        <path fill="#231F20" d="M221.602,81.774v-8.736c0-1.938-0.032-3.207-0.826-4.002c-0.413-0.412-1.207-0.762-2.159-0.762
            c-1.97,0-3.907,1.238-4.033,1.334v12.166h-2.701V66.399h2.415v1.145c0.254-0.158,2.19-1.557,4.796-1.557
            c2.128,0,3.208,0.857,3.684,1.334c1.462,1.461,1.525,3.049,1.525,5.527v8.926H221.602z"/>
        <path fill="#231F20" d="M231.102,69.159c-2.383,0-4.294-1.91-4.294-4.293c0-2.383,1.911-4.312,4.294-4.312
            c2.382,0,4.312,1.93,4.312,4.312C235.414,67.249,233.483,69.159,231.102,69.159 M231.102,61.302c-2.009,0-3.564,1.557-3.564,3.564
            c0,2.01,1.556,3.545,3.564,3.545c2.008,0,3.584-1.535,3.584-3.545C234.686,62.858,233.109,61.302,231.102,61.302 M232.381,67.191
            l-0.591-1.221c-0.354-0.729-0.433-0.787-1.161-0.787h-0.315v2.008h-0.689v-4.746h1.122c0.649,0,1.2,0.039,1.595,0.434
            c0.257,0.256,0.355,0.531,0.355,0.926c0,0.453-0.256,1.062-1.181,1.102c0.531,0.021,0.669,0.316,0.865,0.73l0.749,1.555H232.381z
             M230.787,63.056h-0.474v1.535c0.63,0,1.714,0.1,1.714-0.826C232.027,63.114,231.278,63.056,230.787,63.056"/>
    </g>


</svg>
