<svg xmlns="http://www.w3.org/2000/svg"  viewBox="575.5 718.5 59 59" >
    <g fill="#49a942">
    <path d="M601.078,751.123h-1.388l-0.452-1.274h-2.754l-0.443,1.274h-1.397l2.438-6.387h1.007c0.341,0,0.561,0.106,0.651,0.354
        c0.089,0.247,1.2,3.111,1.2,3.111h-1.299l-0.789-2.175l-0.998,2.74h2.789c0.374,0,0.579,0.122,0.678,0.43L601.078,751.123z"/>
    <path d="M611.866,751.123l-0.452-1.274h-2.754l-0.443,1.274h-1.397l2.438-6.387h1.007c0.342,0,0.561,0.106,0.651,0.354
        c0.089,0.247,1.2,3.111,1.2,3.111h-1.299l-0.789-2.175l-0.998,2.74h2.788c0.374,0,0.579,0.122,0.678,0.43l0.814,1.927H611.866z"/>
    <path d="M601.519,744.736h2.525c1.971,0,2.937,1.048,2.937,3.224c0,1.2-0.376,2.105-1.048,2.642
        c-0.627,0.502-1.326,0.522-2.248,0.522h-2.167L601.519,744.736L601.519,744.736z M603.882,750.011c1.228,0,1.747-0.6,1.747-2.051
        c0-1.433-0.492-2.096-1.585-2.096h-1.227v4.147H603.882z"/>
    <path d="M614.356,749.293c0.563,0,1,0.438,1,0.982c0,0.557-0.437,0.989-1.006,0.989c-0.563,0-1.013-0.431-1.013-0.989
        c0-0.545,0.449-0.982,1.013-0.982H614.356z M614.344,749.491c-0.431,0-0.755,0.353-0.755,0.785c0,0.437,0.324,0.785,0.767,0.785
        c0.431,0.006,0.749-0.348,0.749-0.785c0-0.431-0.318-0.785-0.755-0.785H614.344z M614.194,750.785h-0.227v-0.976
        c0.09-0.018,0.216-0.036,0.377-0.036c0.186,0,0.27,0.03,0.342,0.078c0.054,0.042,0.096,0.12,0.096,0.21
        c0,0.114-0.084,0.197-0.204,0.234v0.012c0.096,0.03,0.15,0.108,0.18,0.24c0.03,0.15,0.048,0.21,0.072,0.239h-0.246
        c-0.03-0.036-0.048-0.12-0.078-0.234c-0.018-0.108-0.078-0.156-0.204-0.156h-0.108L614.194,750.785L614.194,750.785z
         M614.2,750.234h0.108c0.126,0,0.228-0.042,0.228-0.144c0-0.09-0.066-0.149-0.209-0.149c-0.06,0-0.102,0.006-0.126,0.012
        L614.2,750.234L614.2,750.234z"/>
</g>
<g>
    <circle fill="none" stroke="#49a942" cx="605" cy="748" r="27.273">

        <animate  fill="remove" values="1; 20" calcMode="spline" accumulate="none" attributeName="r" dur="1.8s" additive="replace" restart="always" begin="0s" keyTimes="0; 1" keySplines="0.165, 0.84, 0.44, 1" repeatCount="indefinite">
        </animate>

        <animate  fill="remove" values="1; 0" calcMode="spline" accumulate="none" attributeName="stroke-opacity" dur="1.8s" additive="replace" restart="always" begin="0s" keyTimes="0; 1" keySplines="0.3, 0.61, 0.355, 1" repeatCount="indefinite">
        </animate>
    </circle>
    <circle fill="none" stroke="#49a942" cx="605" cy="748" r="27.273">

        <animate  fill="remove" values="1; 20" calcMode="spline" accumulate="none" attributeName="r" dur="1.8s" additive="replace" restart="always" begin="-0.9s" keyTimes="0; 1" keySplines="0.165, 0.84, 0.44, 1" repeatCount="indefinite">
        </animate>

        <animate  fill="remove" values="1; 0" calcMode="spline" accumulate="none" attributeName="stroke-opacity" dur="1.8s" additive="replace" restart="always" begin="-0.9s" keyTimes="0; 1" keySplines="0.3, 0.61, 0.355, 1" repeatCount="indefinite">
        </animate>
    </circle>
</g>
</svg>
